<svg xmlns="http://www.w3.org/2000/svg" viewBox="0 0 48 48" fill="none">
  <defs>
    <linearGradient id="bg" x1="0" y1="0" x2="48" y2="48" gradientUnits="userSpaceOnUse">
      <stop offset="0%" stop-color="#1a1a1f"/>
      <stop offset="50%" stop-color="#27272f"/>
      <stop offset="100%" stop-color="#3f3f46"/>
    </linearGradient>
    <linearGradient id="glyph" x1="14" y1="10" x2="34" y2="38" gradientUnits="userSpaceOnUse">
      <stop offset="0%" stop-color="#ecfccb"/>
      <stop offset="100%" stop-color="#bef264"/>
    </linearGradient>
  </defs>
  <rect width="48" height="48" rx="12" fill="url(#bg)"/>
  <path d="M24 10c-3.5 0-6.2 1.8-7.5 4.2C14.2 15 13 17.5 13 20c0 2.8 1.2 5 3 6.5V32a2 2 0 002 2h12a2 2 0 002-2v-5.5c1.8-1.5 3-3.7 3-6.5 0-2.5-1.2-5-3.5-5.8C30.2 11.8 27.5 10 24 10z" fill="url(#glyph)" opacity="0.95"/>
  <path d="M20 20h8M18 24h12M21 28h6" stroke="#a3e635" stroke-width="1.5" stroke-linecap="round" opacity="0.9"/>
  <circle cx="16" cy="38" r="2.5" fill="#c4b5fd" opacity="0.95"/>
  <circle cx="24" cy="40" r="2.5" fill="#bef264" opacity="0.95"/>
  <circle cx="32" cy="38" r="2.5" fill="#c4b5fd" opacity="0.95"/>
  <path d="M18.2 38.8L22 39.8M26 39.8L29.8 38.8" stroke="#a1a1aa" stroke-width="1" stroke-linecap="round" opacity="0.5"/>
</svg>
