<svg xmlns="http://www.w3.org/2000/svg" viewBox="0 0 48 48" fill="none">
  <defs>
    <linearGradient id="bg" x1="0" y1="0" x2="48" y2="48" gradientUnits="userSpaceOnUse">
      <stop offset="0%" stop-color="#3b82f6"/>
      <stop offset="100%" stop-color="#8b5cf6"/>
    </linearGradient>
    <linearGradient id="brain" x1="14" y1="10" x2="34" y2="38" gradientUnits="userSpaceOnUse">
      <stop offset="0%" stop-color="#ffffff"/>
      <stop offset="100%" stop-color="#e0e7ff"/>
    </linearGradient>
  </defs>
  <rect width="48" height="48" rx="12" fill="url(#bg)"/>
  <!-- Brain/memory icon -->
  <path d="M24 10c-3.5 0-6.2 1.8-7.5 4.2C14.2 15 13 17.5 13 20c0 2.8 1.2 5 3 6.5V32a2 2 0 002 2h12a2 2 0 002-2v-5.5c1.8-1.5 3-3.7 3-6.5 0-2.5-1.2-5-3.5-5.8C30.2 11.8 27.5 10 24 10z" fill="url(#brain)" opacity="0.95"/>
  <!-- Neural connection lines -->
  <path d="M20 20h8M18 24h12M21 28h6" stroke="#3b82f6" stroke-width="1.5" stroke-linecap="round" opacity="0.7"/>
  <!-- Team dots -->
  <circle cx="16" cy="38" r="2.5" fill="#ffffff" opacity="0.9"/>
  <circle cx="24" cy="40" r="2.5" fill="#ffffff" opacity="0.9"/>
  <circle cx="32" cy="38" r="2.5" fill="#ffffff" opacity="0.9"/>
  <!-- Connection lines between team dots -->
  <path d="M18.2 38.8L22 39.8M26 39.8L29.8 38.8" stroke="#ffffff" stroke-width="1" stroke-linecap="round" opacity="0.5"/>
</svg>
